<svg width="1280" height="896" viewBox="0 0 1280 896" fill="none" xmlns="http://www.w3.org/2000/svg">
<path d="M211.308 81.758L211.308 81.7589C213.571 90.4183 213.869 93.4035 213.869 107.955C213.869 115.262 213.793 119.605 213.437 123.2C213.084 126.768 212.453 129.622 211.309 133.947M211.308 81.758L212.469 134.255M211.308 81.758C208.247 70.0095 199.917 52.8541 192.913 43.5804C169.676 12.928 130.408 -3.19445 92.4401 2.24315C77.5296 4.41588 60.599 11.0452 47.1388 20.051C43.2339 22.6871 37.7483 27.523 32.5423 32.729C27.337 37.9343 22.5016 43.4192 19.8654 47.3239C-12.3846 95.4021 -1.89278 158.884 43.9888 193.295C75.929 217.226 119.642 221.276 155.029 203.484M211.308 81.758L155.569 204.555M211.309 133.947C211.309 133.948 211.309 133.948 211.309 133.949L212.469 134.255M211.309 133.947C211.309 133.947 211.309 133.947 211.309 133.947L212.469 134.255M211.309 133.947C203.196 164.419 182.92 189.439 155.029 203.484M212.469 134.255C204.269 165.055 183.769 190.355 155.569 204.555M155.029 203.484C155.029 203.484 155.03 203.483 155.03 203.483L155.569 204.555M155.029 203.484L155.569 204.555" fill="url(#paint0_linear)" stroke="#757575" stroke-width="24"/>
<mask id="path-2-inside-1" fill="white">
<path d="M187.769 223.055C182.869 225.055 181.769 226.855 181.769 233.255C181.769 244.955 187.669 259.455 199.069 275.455C212.469 294.355 215.869 297.455 234.269 307.555C244.169 312.955 252.269 320.255 253.369 324.655C254.269 328.455 263.769 346.955 269.069 355.055C279.269 370.955 281.869 373.955 288.969 377.555C295.469 380.855 299.869 380.655 304.069 376.955C307.769 373.755 320.869 369.155 328.769 368.255C332.169 367.855 334.169 366.855 337.069 364.155C339.069 362.155 340.769 359.755 340.769 358.855C340.769 355.855 343.169 355.155 354.769 355.155C371.069 355.055 388.269 359.455 425.269 373.155C446.669 381.055 458.269 386.555 464.569 391.655C470.069 396.155 481.769 401.155 493.769 404.255C506.569 407.655 523.269 409.655 553.569 411.455C577.069 412.855 579.469 413.255 586.969 415.955C591.469 417.655 596.469 418.955 598.169 418.955C600.569 418.955 626.969 431.255 636.769 436.955C637.569 437.355 643.869 440.755 650.769 444.455C670.369 454.955 675.769 458.255 675.769 459.755C675.769 460.455 671.869 462.855 667.169 465.055C651.769 472.355 635.169 484.855 631.569 491.955C630.269 494.455 628.969 496.555 628.569 496.755C628.069 496.955 627.769 497.955 627.769 498.955C627.769 499.955 627.369 501.155 626.769 501.455C626.269 501.755 625.769 502.955 625.769 503.955C625.769 505.055 624.869 507.455 623.769 509.455C622.669 511.355 621.069 515.955 620.169 519.555C619.069 523.755 616.669 528.855 613.669 533.555C610.969 537.655 608.769 541.255 608.769 541.555C608.769 541.855 607.969 543.355 606.869 544.755C605.869 546.255 603.269 550.555 601.269 554.455C596.169 563.855 596.169 563.955 591.169 563.955C581.169 563.955 555.469 560.555 544.769 557.855C528.569 553.755 514.069 554.155 497.669 558.955C485.969 562.455 479.469 572.155 481.769 582.555C483.769 591.555 486.869 595.055 500.269 603.555C515.069 612.955 519.169 614.955 528.469 616.955C543.869 620.255 557.969 620.855 597.969 620.055L635.669 619.255L641.469 615.755C646.369 612.655 647.569 611.355 649.369 606.755C651.769 600.855 650.669 601.355 669.769 596.955C674.969 595.755 681.569 593.655 684.369 592.455C690.369 589.755 701.469 579.655 705.969 572.855C709.569 567.255 711.569 566.755 717.769 569.955L721.769 571.955V578.955C721.769 585.555 722.069 586.955 725.469 594.755C727.369 599.255 733.269 604.855 738.169 606.955C742.969 609.155 761.169 611.155 771.769 610.755C776.869 610.555 781.169 611.055 785.269 612.355C789.469 613.555 794.969 614.155 803.369 614.355C810.869 614.455 816.069 614.955 816.869 615.655C817.669 616.255 821.869 617.755 826.169 618.955C830.569 620.055 834.869 621.455 835.869 621.955C836.869 622.555 840.869 623.655 844.869 624.455C848.869 625.355 853.469 626.855 855.169 627.855C856.869 628.855 860.269 629.955 862.769 630.355C865.169 630.755 869.169 631.955 871.569 632.955C874.169 634.155 878.269 634.955 881.169 634.955C884.069 634.955 888.969 635.655 892.069 636.455C895.269 637.255 901.469 638.355 906.069 638.955C910.569 639.455 915.669 640.255 917.269 640.655C921.469 641.855 942.769 641.555 951.769 640.155C955.869 639.555 962.669 638.955 966.869 638.955C976.469 638.955 987.669 636.955 1004.27 632.455C1023.37 627.255 1090.47 605.655 1104.27 600.355C1138.17 587.255 1167.67 578.655 1182.97 577.355L1190.57 576.655L1193.27 581.955C1195.37 586.155 1196.07 589.155 1196.47 596.855C1196.97 604.555 1197.57 607.155 1199.37 609.955C1201.87 613.655 1202.47 616.355 1208.67 650.455C1213.37 675.855 1213.47 677.355 1212.37 709.955C1211.67 733.955 1211.67 734.655 1214.17 745.955C1218.47 765.355 1223.57 791.255 1224.07 796.155L1224.57 800.955H1219.37C1216.57 800.955 1209.97 799.755 1204.77 798.255C1199.57 796.855 1193.27 795.655 1190.77 795.555C1186.97 795.455 1186.17 795.855 1184.87 798.155C1183.37 800.755 1183.47 801.055 1186.37 804.655C1189.57 808.555 1191.87 810.055 1202.57 814.555C1207.87 816.855 1209.47 818.155 1212.47 822.755C1216.27 828.455 1223.47 834.755 1229.97 838.055C1234.27 840.255 1234.37 840.355 1232.17 845.455C1230.37 849.755 1230.97 853.955 1233.77 856.455C1235.77 858.355 1236.87 858.155 1243.17 855.455L1247.17 853.755L1245.47 856.155C1240.97 862.255 1239.77 864.755 1239.77 868.155C1239.77 871.055 1240.37 872.255 1242.87 874.155C1244.57 875.455 1247.37 877.955 1249.07 879.655C1252.17 883.055 1254.57 883.655 1257.57 882.055C1259.07 881.255 1259.27 881.955 1259.27 888.255V895.455L1262.07 895.255C1268.07 894.855 1272.07 891.755 1275.57 884.755C1278.47 879.155 1278.97 876.855 1279.47 868.855C1280.07 858.055 1278.47 850.455 1271.97 834.555L1268.27 825.455L1268.37 800.955C1268.47 787.455 1269.07 772.355 1269.77 767.455C1270.47 762.455 1271.27 749.455 1271.67 738.455C1272.27 718.855 1272.17 717.855 1268.07 687.955C1265.77 671.155 1262.77 650.055 1261.37 640.955C1259.87 631.855 1258.47 621.255 1258.07 617.455L1257.57 610.455L1260.47 609.355C1264.37 607.955 1264.77 605.655 1264.77 586.355C1264.77 575.455 1265.27 569.355 1266.37 565.255C1268.57 557.255 1269.37 528.055 1267.87 515.455C1266.37 503.655 1261.57 484.055 1259.97 483.055C1259.27 482.655 1255.97 477.755 1252.47 472.255C1246.57 462.655 1222.97 434.955 1220.67 434.955C1220.17 434.955 1217.87 433.755 1215.57 432.355L1211.47 429.755L1212.07 420.055C1212.77 408.955 1217.17 392.155 1221.77 382.955C1224.37 377.855 1225.57 376.555 1230.07 374.355C1232.87 372.855 1237.27 370.155 1239.67 368.355C1244.57 364.555 1251.57 355.655 1252.27 352.255C1252.57 350.955 1252.97 348.955 1253.27 347.655C1254.07 343.355 1251.87 337.855 1248.77 336.655L1245.97 335.555L1246.47 322.855C1247.67 296.055 1242.57 286.355 1220.47 274.155C1204.67 265.355 1198.37 263.455 1184.77 263.455C1174.17 263.455 1172.77 263.655 1167.57 266.255C1158.57 270.655 1149.87 280.655 1143.37 294.255C1135.37 310.455 1135.07 312.855 1134.17 353.255L1133.47 388.155L1124.87 379.155C1120.17 374.255 1114.77 369.455 1112.87 368.455C1109.27 366.655 1094.57 365.355 1063.07 364.255C1046.57 363.755 1030.57 364.755 1006.17 367.955C1000.07 368.755 997.969 368.555 991.669 366.855C985.569 365.155 965.769 359.955 955.769 357.355C954.369 356.955 944.769 352.755 934.269 347.955C910.369 336.855 908.169 336.355 855.469 327.355C841.969 325.055 789.969 308.255 779.269 302.655C777.569 301.855 773.969 299.255 771.269 297.055C768.669 294.855 763.069 291.355 758.969 289.255L751.469 285.455L735.369 285.555C716.969 285.555 708.569 286.955 705.269 290.555C704.069 291.855 702.569 292.955 701.869 292.955C699.469 292.955 700.769 298.155 704.069 301.455C706.669 304.055 708.969 305.055 715.269 306.555C719.669 307.555 722.569 308.555 721.569 308.755C718.869 309.355 718.669 311.955 721.169 314.455C723.269 316.455 725.969 317.355 737.369 319.555C738.769 319.755 740.069 321.355 741.169 324.455C743.569 330.555 749.469 335.155 758.269 337.855C766.069 340.155 779.669 341.955 790.069 341.955C798.769 341.955 808.169 345.855 838.769 361.855C851.169 368.455 863.969 374.855 867.269 376.255C881.769 382.355 914.469 393.055 922.569 394.355C927.369 395.155 935.769 397.555 941.269 399.755C946.769 401.955 959.669 406.455 969.969 409.755C989.969 416.255 992.069 417.155 995.469 420.155C997.569 422.155 999.469 422.755 1012.77 425.855L1020.27 427.655L1011.77 430.255C988.369 437.255 975.769 439.055 937.269 440.455L919.269 441.155L913.269 438.455C909.969 436.955 904.569 434.455 901.269 432.755C897.969 431.055 892.869 428.855 889.969 427.855C887.069 426.855 883.269 424.855 881.669 423.455C879.969 422.055 877.769 420.955 876.769 420.955C874.169 420.955 870.169 419.155 840.769 404.955C826.169 397.855 807.969 389.455 800.269 386.155C777.769 376.555 727.369 360.155 724.169 361.355C721.669 362.355 682.669 357.155 671.669 354.455C666.369 353.155 658.669 350.655 654.469 349.055C650.369 347.355 639.869 343.955 631.269 341.455C616.469 337.255 614.569 336.855 597.069 335.955C575.469 334.755 574.169 334.555 553.269 327.455C532.969 320.655 517.969 317.555 490.869 314.455C450.869 309.955 411.369 304.955 398.269 302.855C370.069 298.355 338.669 291.055 331.969 287.555L329.369 286.155L333.269 284.555C338.469 282.355 340.769 280.155 340.769 277.355C340.769 274.255 336.969 273.255 332.969 275.355C331.269 276.255 329.669 277.355 329.369 277.855C328.669 278.955 315.969 276.255 313.969 274.655C313.169 274.055 310.869 270.055 308.669 265.755C306.569 261.455 303.669 257.255 302.269 256.355C299.269 254.355 294.869 255.155 294.669 257.755C294.369 261.155 295.069 262.455 299.469 267.655C301.969 270.555 303.669 272.955 303.369 272.955C302.969 272.955 300.569 271.855 297.969 270.555C295.369 269.255 292.169 267.855 290.769 267.455C289.369 267.155 286.069 265.755 283.269 264.455C276.569 261.455 262.469 255.955 261.369 255.955C260.869 255.955 259.069 254.855 257.369 253.555C255.669 252.255 251.869 250.055 248.869 248.455C244.069 246.055 239.569 243.255 225.769 234.355C223.869 233.055 217.769 229.755 212.269 227.055C203.469 222.655 201.569 221.955 196.269 222.055C192.969 222.055 189.169 222.555 187.769 223.055Z"/>
</mask>
<path d="M187.769 223.055C182.869 225.055 181.769 226.855 181.769 233.255C181.769 244.955 187.669 259.455 199.069 275.455C212.469 294.355 215.869 297.455 234.269 307.555C244.169 312.955 252.269 320.255 253.369 324.655C254.269 328.455 263.769 346.955 269.069 355.055C279.269 370.955 281.869 373.955 288.969 377.555C295.469 380.855 299.869 380.655 304.069 376.955C307.769 373.755 320.869 369.155 328.769 368.255C332.169 367.855 334.169 366.855 337.069 364.155C339.069 362.155 340.769 359.755 340.769 358.855C340.769 355.855 343.169 355.155 354.769 355.155C371.069 355.055 388.269 359.455 425.269 373.155C446.669 381.055 458.269 386.555 464.569 391.655C470.069 396.155 481.769 401.155 493.769 404.255C506.569 407.655 523.269 409.655 553.569 411.455C577.069 412.855 579.469 413.255 586.969 415.955C591.469 417.655 596.469 418.955 598.169 418.955C600.569 418.955 626.969 431.255 636.769 436.955C637.569 437.355 643.869 440.755 650.769 444.455C670.369 454.955 675.769 458.255 675.769 459.755C675.769 460.455 671.869 462.855 667.169 465.055C651.769 472.355 635.169 484.855 631.569 491.955C630.269 494.455 628.969 496.555 628.569 496.755C628.069 496.955 627.769 497.955 627.769 498.955C627.769 499.955 627.369 501.155 626.769 501.455C626.269 501.755 625.769 502.955 625.769 503.955C625.769 505.055 624.869 507.455 623.769 509.455C622.669 511.355 621.069 515.955 620.169 519.555C619.069 523.755 616.669 528.855 613.669 533.555C610.969 537.655 608.769 541.255 608.769 541.555C608.769 541.855 607.969 543.355 606.869 544.755C605.869 546.255 603.269 550.555 601.269 554.455C596.169 563.855 596.169 563.955 591.169 563.955C581.169 563.955 555.469 560.555 544.769 557.855C528.569 553.755 514.069 554.155 497.669 558.955C485.969 562.455 479.469 572.155 481.769 582.555C483.769 591.555 486.869 595.055 500.269 603.555C515.069 612.955 519.169 614.955 528.469 616.955C543.869 620.255 557.969 620.855 597.969 620.055L635.669 619.255L641.469 615.755C646.369 612.655 647.569 611.355 649.369 606.755C651.769 600.855 650.669 601.355 669.769 596.955C674.969 595.755 681.569 593.655 684.369 592.455C690.369 589.755 701.469 579.655 705.969 572.855C709.569 567.255 711.569 566.755 717.769 569.955L721.769 571.955V578.955C721.769 585.555 722.069 586.955 725.469 594.755C727.369 599.255 733.269 604.855 738.169 606.955C742.969 609.155 761.169 611.155 771.769 610.755C776.869 610.555 781.169 611.055 785.269 612.355C789.469 613.555 794.969 614.155 803.369 614.355C810.869 614.455 816.069 614.955 816.869 615.655C817.669 616.255 821.869 617.755 826.169 618.955C830.569 620.055 834.869 621.455 835.869 621.955C836.869 622.555 840.869 623.655 844.869 624.455C848.869 625.355 853.469 626.855 855.169 627.855C856.869 628.855 860.269 629.955 862.769 630.355C865.169 630.755 869.169 631.955 871.569 632.955C874.169 634.155 878.269 634.955 881.169 634.955C884.069 634.955 888.969 635.655 892.069 636.455C895.269 637.255 901.469 638.355 906.069 638.955C910.569 639.455 915.669 640.255 917.269 640.655C921.469 641.855 942.769 641.555 951.769 640.155C955.869 639.555 962.669 638.955 966.869 638.955C976.469 638.955 987.669 636.955 1004.27 632.455C1023.37 627.255 1090.47 605.655 1104.27 600.355C1138.17 587.255 1167.67 578.655 1182.97 577.355L1190.57 576.655L1193.27 581.955C1195.37 586.155 1196.07 589.155 1196.47 596.855C1196.97 604.555 1197.57 607.155 1199.37 609.955C1201.87 613.655 1202.47 616.355 1208.67 650.455C1213.37 675.855 1213.47 677.355 1212.37 709.955C1211.67 733.955 1211.67 734.655 1214.17 745.955C1218.47 765.355 1223.57 791.255 1224.07 796.155L1224.57 800.955H1219.37C1216.57 800.955 1209.97 799.755 1204.77 798.255C1199.57 796.855 1193.27 795.655 1190.77 795.555C1186.97 795.455 1186.17 795.855 1184.87 798.155C1183.37 800.755 1183.47 801.055 1186.37 804.655C1189.57 808.555 1191.87 810.055 1202.57 814.555C1207.87 816.855 1209.47 818.155 1212.47 822.755C1216.27 828.455 1223.47 834.755 1229.97 838.055C1234.27 840.255 1234.37 840.355 1232.17 845.455C1230.37 849.755 1230.97 853.955 1233.77 856.455C1235.77 858.355 1236.87 858.155 1243.17 855.455L1247.17 853.755L1245.47 856.155C1240.97 862.255 1239.77 864.755 1239.77 868.155C1239.77 871.055 1240.37 872.255 1242.87 874.155C1244.57 875.455 1247.37 877.955 1249.07 879.655C1252.17 883.055 1254.57 883.655 1257.57 882.055C1259.07 881.255 1259.27 881.955 1259.27 888.255V895.455L1262.07 895.255C1268.07 894.855 1272.07 891.755 1275.57 884.755C1278.47 879.155 1278.97 876.855 1279.47 868.855C1280.07 858.055 1278.47 850.455 1271.97 834.555L1268.27 825.455L1268.37 800.955C1268.47 787.455 1269.07 772.355 1269.77 767.455C1270.47 762.455 1271.27 749.455 1271.67 738.455C1272.27 718.855 1272.17 717.855 1268.07 687.955C1265.77 671.155 1262.77 650.055 1261.37 640.955C1259.87 631.855 1258.47 621.255 1258.07 617.455L1257.57 610.455L1260.47 609.355C1264.37 607.955 1264.77 605.655 1264.77 586.355C1264.77 575.455 1265.27 569.355 1266.37 565.255C1268.57 557.255 1269.37 528.055 1267.87 515.455C1266.37 503.655 1261.57 484.055 1259.97 483.055C1259.27 482.655 1255.97 477.755 1252.47 472.255C1246.57 462.655 1222.97 434.955 1220.67 434.955C1220.17 434.955 1217.87 433.755 1215.57 432.355L1211.47 429.755L1212.07 420.055C1212.77 408.955 1217.17 392.155 1221.77 382.955C1224.37 377.855 1225.57 376.555 1230.07 374.355C1232.87 372.855 1237.27 370.155 1239.67 368.355C1244.57 364.555 1251.57 355.655 1252.27 352.255C1252.57 350.955 1252.97 348.955 1253.27 347.655C1254.07 343.355 1251.87 337.855 1248.77 336.655L1245.97 335.555L1246.47 322.855C1247.67 296.055 1242.57 286.355 1220.47 274.155C1204.67 265.355 1198.37 263.455 1184.77 263.455C1174.17 263.455 1172.77 263.655 1167.57 266.255C1158.57 270.655 1149.87 280.655 1143.37 294.255C1135.37 310.455 1135.07 312.855 1134.17 353.255L1133.47 388.155L1124.87 379.155C1120.17 374.255 1114.77 369.455 1112.87 368.455C1109.27 366.655 1094.57 365.355 1063.07 364.255C1046.57 363.755 1030.57 364.755 1006.17 367.955C1000.07 368.755 997.969 368.555 991.669 366.855C985.569 365.155 965.769 359.955 955.769 357.355C954.369 356.955 944.769 352.755 934.269 347.955C910.369 336.855 908.169 336.355 855.469 327.355C841.969 325.055 789.969 308.255 779.269 302.655C777.569 301.855 773.969 299.255 771.269 297.055C768.669 294.855 763.069 291.355 758.969 289.255L751.469 285.455L735.369 285.555C716.969 285.555 708.569 286.955 705.269 290.555C704.069 291.855 702.569 292.955 701.869 292.955C699.469 292.955 700.769 298.155 704.069 301.455C706.669 304.055 708.969 305.055 715.269 306.555C719.669 307.555 722.569 308.555 721.569 308.755C718.869 309.355 718.669 311.955 721.169 314.455C723.269 316.455 725.969 317.355 737.369 319.555C738.769 319.755 740.069 321.355 741.169 324.455C743.569 330.555 749.469 335.155 758.269 337.855C766.069 340.155 779.669 341.955 790.069 341.955C798.769 341.955 808.169 345.855 838.769 361.855C851.169 368.455 863.969 374.855 867.269 376.255C881.769 382.355 914.469 393.055 922.569 394.355C927.369 395.155 935.769 397.555 941.269 399.755C946.769 401.955 959.669 406.455 969.969 409.755C989.969 416.255 992.069 417.155 995.469 420.155C997.569 422.155 999.469 422.755 1012.77 425.855L1020.27 427.655L1011.77 430.255C988.369 437.255 975.769 439.055 937.269 440.455L919.269 441.155L913.269 438.455C909.969 436.955 904.569 434.455 901.269 432.755C897.969 431.055 892.869 428.855 889.969 427.855C887.069 426.855 883.269 424.855 881.669 423.455C879.969 422.055 877.769 420.955 876.769 420.955C874.169 420.955 870.169 419.155 840.769 404.955C826.169 397.855 807.969 389.455 800.269 386.155C777.769 376.555 727.369 360.155 724.169 361.355C721.669 362.355 682.669 357.155 671.669 354.455C666.369 353.155 658.669 350.655 654.469 349.055C650.369 347.355 639.869 343.955 631.269 341.455C616.469 337.255 614.569 336.855 597.069 335.955C575.469 334.755 574.169 334.555 553.269 327.455C532.969 320.655 517.969 317.555 490.869 314.455C450.869 309.955 411.369 304.955 398.269 302.855C370.069 298.355 338.669 291.055 331.969 287.555L329.369 286.155L333.269 284.555C338.469 282.355 340.769 280.155 340.769 277.355C340.769 274.255 336.969 273.255 332.969 275.355C331.269 276.255 329.669 277.355 329.369 277.855C328.669 278.955 315.969 276.255 313.969 274.655C313.169 274.055 310.869 270.055 308.669 265.755C306.569 261.455 303.669 257.255 302.269 256.355C299.269 254.355 294.869 255.155 294.669 257.755C294.369 261.155 295.069 262.455 299.469 267.655C301.969 270.555 303.669 272.955 303.369 272.955C302.969 272.955 300.569 271.855 297.969 270.555C295.369 269.255 292.169 267.855 290.769 267.455C289.369 267.155 286.069 265.755 283.269 264.455C276.569 261.455 262.469 255.955 261.369 255.955C260.869 255.955 259.069 254.855 257.369 253.555C255.669 252.255 251.869 250.055 248.869 248.455C244.069 246.055 239.569 243.255 225.769 234.355C223.869 233.055 217.769 229.755 212.269 227.055C203.469 222.655 201.569 221.955 196.269 222.055C192.969 222.055 189.169 222.555 187.769 223.055Z" fill="url(#paint1_linear)" stroke="#757575" stroke-width="48" mask="url(#path-2-inside-1)"/>
<defs>
<linearGradient id="paint0_linear" x1="107.534" y1="215.69" x2="107.534" y2="3.34071e-05" gradientUnits="userSpaceOnUse">
<stop stop-color="white"/>
<stop offset="1" stop-color="white"/>
</linearGradient>
<linearGradient id="paint1_linear" x1="730.677" y1="895.455" x2="730.677" y2="222.047" gradientUnits="userSpaceOnUse">
<stop stop-color="white"/>
<stop offset="1" stop-color="white"/>
</linearGradient>
</defs>
</svg>
